<svg xmlns="http://www.w3.org/2000/svg" viewBox="16.2 -29.8 979.6 688.6" role="img">
  <title>верх иероглифа «丧»</title>
  <g transform="scale(1,-1) translate(0,-900)" fill="#4d653e">
    <path d="M 535 654 Q 704 690 710 695 Q 720 702 715 712 Q 708 724 678 732 Q 647 739 617 728 Q 577 715 539 704 L 480 690 Q 407 677 327 669 Q 290 665 316 646 Q 358 621 415 633 Q 446 639 482 645 L 535 654 Z"/>
    <path d="M 521 432 Q 528 547 535 654 L 539 704 Q 539 716 555 782 Q 558 792 538 808 Q 502 827 478 831 Q 462 835 454 826 Q 447 819 455 803 Q 477 770 478 748 Q 479 720 480 690 L 482 645 Q 483 542 479 426 C 478 396 519 402 521 432 Z"/>
    <path d="M 316 522 Q 343 500 372 471 Q 384 459 399 460 Q 409 460 413 473 Q 417 486 409 513 Q 405 532 374 546 Q 310 573 292 567 Q 288 563 289 551 Q 292 541 316 522 Z"/>
    <path d="M 654 595 Q 632 558 587 501 Q 581 494 587 487 Q 594 486 602 490 Q 686 553 726 576 Q 744 582 740 592 Q 733 608 714 626 Q 695 642 672 644 Q 659 644 659 624 Q 662 611 654 595 Z"/>
    <path d="M 708 406 Q 769 407 869 408 Q 890 408 895 417 Q 901 430 883 445 Q 822 493 759 472 Q 665 454 521 432 L 479 426 Q 319 407 133 384 Q 111 381 128 363 Q 143 348 162 342 Q 184 336 202 341 Q 242 353 290 362 L 334 371 Q 371 380 415 384 L 466 389 Q 548 402 666 405 L 708 406 Z"/>
  </g>
</svg>
