<svg xmlns="http://www.w3.org/2000/svg" viewBox="43.56 140.56 944.88 479.88" role="img">
  <title>средняя часть иероглифа «衰»</title>
  <g transform="scale(1,-1) translate(0,-900)" fill="#4d653e">
    <path d="M 380 612 Q 367 616 341 620 Q 329 623 327 617 Q 321 611 329 597 Q 348 560 363 507 L 370 477 Q 388 405 400 390 Q 418 371 422 385 Q 423 392 425 399 L 425 420 Q 421 459 413 484 L 407 512 Q 398 560 395 580 C 390 609 390 609 380 612 Z"/>
    <path d="M 576 415 Q 591 393 605 385 Q 615 378 630 398 Q 642 417 666 508 L 679 553 Q 688 575 706 592 Q 719 602 708 617 Q 693 633 652 659 Q 636 668 575 652 Q 569 652 453 628 Q 411 618 380 612 C 351 606 366 571 395 580 Q 395 581 396 581 Q 463 600 580 620 Q 607 624 615 616 Q 625 601 624 588 Q 620 563 614 542 L 606 505 Q 596 468 592 458 Q 589 446 573 443 C 560 436 560 436 576 415 Z"/>
    <path d="M 666 508 Q 738 514 867 513 Q 886 513 891 522 Q 897 532 880 546 Q 826 588 766 569 Q 726 563 679 553 L 614 542 Q 563 535 507 526 Q 458 520 407 512 L 363 507 Q 264 497 156 481 Q 135 480 151 463 Q 164 450 182 444 Q 201 440 218 444 Q 290 465 370 477 L 413 484 Q 473 499 606 505 L 666 508 Z"/>
    <path d="M 470 402 Q 528 411 576 415 C 606 418 599 428 573 443 Q 569 446 563 447 Q 536 451 425 420 C 396 412 395 399 425 399 Q 429 399 437 399 L 470 402 Z"/>
  </g>
</svg>
